HIERARCHY
ROOT root
{
	OFFSET 0.000000 0.000000 0.000000
	CHANNELS 6 Xposition Yposition Zposition Zrotation Yrotation Xrotation
	JOINT lhip
	{
		OFFSET 0.058581 -0.082280 -0.017664
		CHANNELS 3 Zrotation Yrotation Xrotation
		JOINT lknee
		{
			OFFSET 0.043451 -0.386469 0.008037
			CHANNELS 3 Zrotation Yrotation Xrotation
			JOINT lankle
			{
				OFFSET -0.014790 -0.426874 -0.037428
				CHANNELS 3 Zrotation Yrotation Xrotation
				JOINT ltoe
				{
					OFFSET 0.041054 -0.060286 0.122042
					CHANNELS 3 Zrotation Yrotation Xrotation
					End Site
					{
						OFFSET 0.000000 0.000000 0.000000
					}
				}
			}
		}
	}
	JOINT rhip
	{
		OFFSET -0.060310 -0.090513 -0.013543
		CHANNELS 3 Zrotation Yrotation Xrotation
		JOINT rknee
		{
			OFFSET -0.043257 -0.383688 -0.004843
			CHANNELS 3 Zrotation Yrotation Xrotation
			JOINT rankle
			{
				OFFSET 0.019056 -0.420046 -0.034562
				CHANNELS 3 Zrotation Yrotation Xrotation
				JOINT rtoe
				{
					OFFSET -0.034840 -0.062106 0.130323
					CHANNELS 3 Zrotation Yrotation Xrotation
					End Site
					{
						OFFSET 0.000000 0.000000 0.000000
					}
				}
			}
		}
	}
	JOINT lowerback
	{
		OFFSET 0.004439 0.124404 -0.038385
		CHANNELS 3 Zrotation Yrotation Xrotation
		JOINT upperback
		{
			OFFSET 0.004488 0.137956 0.026820
			CHANNELS 3 Zrotation Yrotation Xrotation
			JOINT chest
			{
				OFFSET -0.002265 0.056032 0.002855
				CHANNELS 3 Zrotation Yrotation Xrotation
				JOINT lowerneck
				{
					OFFSET -0.013390 0.211636 -0.033468
					CHANNELS 3 Zrotation Yrotation Xrotation
					JOINT upperneck
					{
						OFFSET 0.010113 0.088937 0.050410
						CHANNELS 3 Zrotation Yrotation Xrotation
						End Site
						{
							OFFSET 0.000000 0.000000 0.000000
						}
					}
				}
				JOINT lclavicle
				{
					OFFSET 0.071702 0.114000 -0.018898
					CHANNELS 3 Zrotation Yrotation Xrotation
					JOINT lshoulder
					{
						OFFSET 0.122921 0.045205 -0.019046
						CHANNELS 3 Zrotation Yrotation Xrotation
						JOINT lelbow
						{
							OFFSET 0.255332 -0.015649 -0.022946
							CHANNELS 3 Zrotation Yrotation Xrotation
							JOINT lwrist
							{
								OFFSET 0.265709 0.012698 -0.007375
								CHANNELS 3 Zrotation Yrotation Xrotation
								End Site
								{
									OFFSET 0.000000 0.000000 0.000000
								}
							}
						}
					}
				}
				JOINT rclavicle
				{
					OFFSET -0.082954 0.112472 -0.023707
					CHANNELS 3 Zrotation Yrotation Xrotation
					JOINT rshoulder
					{
						OFFSET -0.113228 0.046853 -0.008472
						CHANNELS 3 Zrotation Yrotation Xrotation
						JOINT relbow
						{
							OFFSET -0.260127 -0.014369 -0.031269
							CHANNELS 3 Zrotation Yrotation Xrotation
							JOINT rwrist
							{
								OFFSET -0.269108 0.006794 -0.006027
								CHANNELS 3 Zrotation Yrotation Xrotation
								End Site
								{
									OFFSET 0.000000 0.000000 0.000000
								}
							}
						}
					}
				}
			}
		}
	}
}
MOTION
Frames: 11
Frame Time: 0.033333
-1.801077 0.249897 1.015315 87.975156 1.887976 88.954315 5.875139 4.978529 5.269682 -4.159111 -4.450061 2.473203 1.797237 8.863581 -13.912768 0.000000 -0.000000 0.000000 -4.759987 -5.284406 -3.413634 -0.279752 -2.652991 16.715855 4.621518 -5.331639 -11.852584 0.000000 -0.000000 0.000000 -0.031815 -0.131614 7.555233 1.547406 -0.915358 -1.531949 -0.490391 -1.130491 -0.321803 1.803899 -4.881318 -3.774478 -1.039439 -11.088182 7.360109 -27.955320 6.467659 1.757844 -50.993847 -6.555719 6.677251 6.817627 -33.970758 7.702106 -4.749086 -7.075809 -5.513810 29.211469 -3.249613 -1.407277 60.289475 -0.763452 10.647920 -18.172043 24.999871 -10.467601 2.748465 2.102640 -4.662418 
-1.798436 0.243270 1.015778 89.049653 1.879079 88.715762 6.203842 4.884439 5.379005 -3.866547 -4.681321 2.636336 1.366207 8.628187 -13.845518 0.000000 -0.000000 0.000000 -4.473628 -5.677601 -2.546581 -0.350081 -3.360036 16.330519 4.365358 -5.492663 -11.355863 0.000000 -0.000000 0.000000 0.063088 -0.301825 7.399327 1.480910 -1.062932 -1.738766 -0.656970 -1.249254 -0.401443 1.566662 -5.177415 -3.314465 -1.080537 -11.135434 7.766349 -27.950299 6.796852 1.809016 -51.207377 -6.872748 6.710095 7.581031 -34.120569 6.994013 -4.764305 -7.459717 -6.242489 28.853751 -3.611712 -1.478840 60.990885 -1.159854 10.094428 -17.566289 22.222025 -10.838608 4.127002 1.849827 -6.386431 
-1.796024 0.236560 1.016329 89.939159 1.742548 88.584754 6.433226 4.880726 5.349111 -3.702418 -4.949044 2.867068 1.117447 8.480979 -13.712031 0.000000 -0.000000 0.000000 -4.055675 -5.890222 -1.786596 -0.520427 -3.829322 15.809290 3.911318 -5.877381 -11.241831 0.000000 -0.000000 0.000000 -0.022675 -0.487735 7.222883 1.314041 -1.105483 -1.905938 -0.713134 -1.259032 -0.608164 0.979027 -5.004486 -2.817350 -1.253792 -10.629076 7.986371 -27.930366 7.021784 1.900126 -51.452954 -7.125358 6.532137 7.842036 -34.174880 6.647776 -4.374792 -7.670378 -6.699904 28.736929 -3.689993 -1.125057 61.289561 -1.763877 10.178977 -16.676464 19.861792 -9.320532 4.354497 1.485570 -5.673693 
-1.793627 0.227431 1.016753 91.058078 1.437249 88.632350 6.637400 5.253246 4.864226 -3.459408 -5.479526 3.418173 1.165954 8.014218 -13.263056 0.000000 -0.000000 0.000000 -3.561301 -6.113758 -1.015254 -0.738779 -4.232614 15.023741 3.424051 -6.306097 -11.182544 0.000000 -0.000000 0.000000 -0.225367 -0.695394 7.050556 1.144538 -1.032470 -2.309057 -0.848902 -1.164237 -0.618353 0.820120 -5.318875 -3.097295 -1.175147 -10.810884 8.263491 -28.258613 7.192216 1.879526 -51.627528 -7.379332 6.681210 7.977328 -34.355106 6.582038 -3.834308 -7.974385 -6.889297 28.861063 -3.619949 -1.038947 60.946413 -2.310850 10.292155 -15.618991 16.911675 -7.847965 4.473468 1.167603 -4.639262 
-1.793062 0.224895 1.016919 91.307436 1.331222 88.676499 6.663978 5.381421 4.740291 -3.414128 -5.562288 3.483816 1.159343 7.887905 -13.113572 0.000000 -0.000000 0.000000 -3.557121 -6.270327 -0.868767 -0.678491 -4.369266 14.856958 3.442341 -6.267499 -11.284085 0.000000 -0.000000 0.000000 -0.172376 -0.708804 6.973076 1.048601 -0.987508 -2.372783 -0.970905 -1.124780 -0.679324 0.781295 -5.418754 -3.174340 -1.116064 -10.887807 8.315409 -28.374724 7.218478 1.845638 -51.729292 -7.418810 6.743087 8.020174 -34.265352 6.624283 -3.933048 -7.973992 -6.811995 28.797629 -3.581412 -1.022059 60.881363 -2.452980 10.238522 -15.557539 16.347054 -7.709311 4.589606 1.172644 -4.565830 
-1.792112 0.220535 1.017316 91.565466 1.224878 88.758867 6.724709 5.296431 4.665078 -3.322714 -5.554762 3.390860 0.912156 7.982521 -12.911382 0.000000 -0.000000 0.000000 -3.452041 -6.371882 -0.690716 -0.486321 -4.383809 14.573126 3.488101 -6.366827 -11.467873 0.000000 -0.000000 0.000000 0.142946 -0.651146 6.722987 0.811829 -0.795830 -2.297736 -1.224151 -1.081294 -0.582765 0.864254 -5.454191 -3.823601 -1.068683 -11.008105 8.333845 -28.847899 7.238103 1.362822 -51.863095 -7.465170 6.863346 8.009657 -33.765651 6.901647 -4.129370 -7.755877 -6.049305 28.798702 -3.474734 -1.241226 60.468654 -2.643134 10.407927 -15.310973 15.645425 -7.211432 4.569985 1.137973 -3.737891 
-1.791289 0.217145 1.017587 91.792284 1.075476 88.793893 6.843901 5.575265 4.664187 -3.344643 -5.646670 3.291390 0.632806 7.643282 -12.693451 0.000000 -0.000000 0.000000 -3.404760 -6.597734 -0.482991 -0.486467 -4.514898 14.275920 3.474554 -6.200178 -11.588983 0.000000 -0.000000 0.000000 0.409162 -0.607030 6.717497 0.600704 -0.642881 -2.389619 -1.409455 -1.028980 -0.737485 0.621242 -5.643693 -3.869217 -1.165339 -11.057481 8.417425 -29.112059 7.287198 1.191009 -52.365289 -7.367664 6.765786 8.146132 -32.953825 7.007715 -4.097951 -7.775585 -5.568713 28.500650 -3.494578 -1.232741 60.239577 -2.614157 10.246174 -15.223298 15.406034 -6.994469 4.474021 1.035839 -3.363601 
-1.790908 0.214512 1.017792 92.010702 0.919424 88.949428 6.810135 5.551715 4.510432 -3.264774 -5.619525 3.188704 0.511011 7.513454 -12.547879 0.000000 -0.000000 0.000000 -3.340931 -6.659482 -0.479824 -0.492500 -4.629547 14.055054 3.341406 -6.283297 -11.476257 0.000000 -0.000000 0.000000 0.599359 -0.589852 6.600825 0.394058 -0.562029 -2.477340 -1.553162 -1.024775 -0.769916 0.554113 -5.874456 -3.999633 -1.243619 -11.096958 8.555978 -29.334197 7.322815 0.941877 -52.794167 -7.188544 6.744599 8.119213 -31.796404 6.762688 -3.701716 -7.664996 -5.362299 28.327760 -3.522460 -1.250338 59.802191 -2.393781 10.199878 -15.280985 15.846303 -7.213270 4.319503 1.039553 -3.341727 
-1.790387 0.212695 1.017868 92.335248 0.759325 88.940113 6.736100 5.577348 4.480250 -3.205686 -5.701134 3.214963 0.381615 7.461604 -12.339601 0.000000 -0.000000 0.000000 -3.308171 -6.609167 -0.233577 -0.525465 -4.695973 13.780777 3.216545 -6.554404 -11.509266 0.000000 -0.000000 0.000000 0.731383 -0.680795 6.619360 0.219842 -0.511024 -2.494037 -1.704364 -1.103394 -0.598028 0.590157 -5.913934 -4.508210 -1.387974 -11.075538 8.674603 -29.685516 7.494473 0.523248 -52.903354 -7.093003 6.665029 7.633495 -30.564855 6.747952 -3.110197 -7.375277 -5.014182 28.296174 -3.468371 -1.692536 59.206046 -1.909519 10.150774 -15.158461 16.079173 -7.820723 3.660910 1.350372 -3.193839 
-1.790578 0.211439 1.017883 92.679147 0.645305 89.029324 6.698139 5.850246 4.270234 -3.147196 -5.864577 3.287033 0.228287 7.196454 -12.142254 0.000000 -0.000000 0.000000 -3.237920 -6.573753 -0.235857 -0.648704 -4.936897 13.653166 3.150916 -6.524517 -11.451411 0.000000 -0.000000 0.000000 0.922605 -0.870591 6.709686 0.076643 -0.491605 -2.587067 -1.898627 -1.138190 -0.618550 0.560866 -6.026425 -4.615440 -1.718889 -11.115687 8.678814 -30.265235 8.005416 0.099480 -52.879446 -7.056483 6.160086 7.524712 -29.418867 6.771680 -3.374375 -6.876839 -4.141812 28.193674 -3.572487 -2.042887 58.846626 -1.464739 9.859102 -15.508922 16.774277 -9.045749 2.911887 1.687110 -2.986527 
-1.790353 0.210769 1.017786 92.852805 0.588505 88.941124 6.675618 6.086233 4.336018 -3.080549 -5.976960 3.335237 0.045331 6.917753 -12.125080 0.000000 -0.000000 0.000000 -3.232691 -6.700312 -0.054437 -0.691396 -5.025969 13.578217 3.048623 -6.481769 -11.544012 0.000000 -0.000000 0.000000 1.024645 -0.898885 6.867046 0.009760 -0.492316 -2.512369 -1.970912 -1.169191 -0.696802 0.520211 -6.218416 -4.413826 -2.001987 -11.134578 8.578894 -30.628056 8.265287 -0.096666 -52.770492 -6.717331 5.789178 7.028981 -28.615181 7.255782 -3.651908 -6.414350 -3.324631 28.159176 -3.588921 -2.272060 58.278236 -1.071410 9.684261 -15.931737 18.368878 -9.780118 2.629195 1.620988 -2.756166 
